<svg xmlns="http://www.w3.org/2000/svg" xmlns:xlink="http://www.w3.org/1999/xlink" width="100" zoomAndPan="magnify" viewBox="0 0 75 74.999997" height="100" preserveAspectRatio="xMidYMid meet" version="1.0"><defs><g/><clipPath id="id1"><path d="M 19.199219 4.484375 L 55.949219 4.484375 L 55.949219 41.234375 L 19.199219 41.234375 Z M 19.199219 4.484375 " clip-rule="nonzero"/></clipPath><clipPath id="id2"><path d="M 44 31 L 55 31 L 55 41.234375 L 44 41.234375 Z M 44 31 " clip-rule="nonzero"/></clipPath><clipPath id="id3"><path d="M 52 35 L 55.949219 35 L 55.949219 38 L 52 38 Z M 52 35 " clip-rule="nonzero"/></clipPath></defs><g clip-path="url(#id1)"><path fill="rgb(47.44873%, 76.858521%, 30.979919%)" d="M 37.550781 41.125 C 37.5 41.125 37.46875 41.125 37.457031 41.125 C 27.390625 41.125 19.199219 32.929688 19.199219 22.859375 C 19.199219 12.785156 27.390625 4.59375 37.460938 4.59375 C 44.539062 4.59375 50.210938 7.925781 53.429688 13.980469 C 55.636719 18.449219 55.566406 22.988281 53.234375 26.433594 C 51.277344 29.328125 47.917969 31.039062 44.675781 30.789062 C 41.488281 30.542969 38.855469 28.554688 37.265625 25.183594 C 37.160156 24.957031 37.257812 24.691406 37.480469 24.585938 C 37.703125 24.476562 37.972656 24.574219 38.078125 24.800781 C 39.523438 27.863281 41.890625 29.675781 44.742188 29.894531 C 47.671875 30.117188 50.710938 28.5625 52.488281 25.929688 C 54.636719 22.757812 54.6875 18.550781 52.628906 14.390625 C 49.582031 8.65625 44.195312 5.488281 37.460938 5.488281 C 27.886719 5.488281 20.097656 13.28125 20.097656 22.859375 C 20.097656 32.433594 27.886719 40.226562 37.460938 40.226562 C 37.511719 40.230469 41.652344 40.273438 45.289062 38.425781 C 45.511719 38.3125 45.78125 38.402344 45.894531 38.621094 C 46.003906 38.84375 45.917969 39.113281 45.695312 39.226562 C 42.125 41.042969 38.230469 41.125 37.550781 41.125 " fill-opacity="1" fill-rule="nonzero"/></g><path fill="rgb(47.44873%, 76.858521%, 30.979919%)" d="M 37.589844 32.828125 C 36.902344 32.828125 36.191406 32.75 35.46875 32.585938 C 31.617188 31.726562 28.359375 28.714844 27.363281 25.09375 C 26.183594 20.796875 28.089844 16.019531 32.730469 11.640625 L 33.121094 11.273438 L 33.414062 11.722656 C 34.886719 13.992188 37.296875 15.175781 39.628906 16.324219 C 43.566406 18.261719 47.285156 20.089844 45.402344 26.675781 C 45.332031 26.914062 45.085938 27.050781 44.847656 26.984375 C 44.609375 26.914062 44.46875 26.667969 44.539062 26.429688 C 46.214844 20.566406 43.132812 19.046875 39.230469 17.128906 C 36.941406 16.003906 34.578125 14.839844 32.96875 12.65625 C 28.855469 16.691406 27.171875 21.011719 28.230469 24.855469 C 29.140625 28.167969 32.128906 30.921875 35.664062 31.710938 C 38.460938 32.335938 40.996094 31.605469 42.621094 29.710938 C 42.78125 29.519531 43.066406 29.5 43.253906 29.660156 C 43.441406 29.820312 43.464844 30.101562 43.300781 30.292969 C 41.882812 31.949219 39.867188 32.828125 37.589844 32.828125 " fill-opacity="1" fill-rule="nonzero"/><g clip-path="url(#id2)"><path fill="rgb(47.44873%, 76.858521%, 30.979919%)" d="M 46.113281 38.40625 C 47.0625 40.113281 49.222656 40.730469 50.925781 39.78125 L 53.238281 38.496094 L 49.796875 32.304688 L 47.488281 33.589844 C 46.660156 34.050781 46.0625 34.804688 45.800781 35.714844 C 45.542969 36.625 45.652344 37.578125 46.113281 38.40625 L 45.71875 38.625 Z M 49.214844 41.121094 C 47.65625 41.121094 46.140625 40.300781 45.328125 38.84375 C 44.753906 37.804688 44.613281 36.605469 44.941406 35.46875 C 45.265625 34.328125 46.015625 33.382812 47.050781 32.804688 L 50.144531 31.085938 L 54.457031 38.84375 L 51.363281 40.5625 C 50.683594 40.941406 49.945312 41.121094 49.214844 41.121094 " fill-opacity="1" fill-rule="nonzero"/></g><path fill="rgb(47.44873%, 76.858521%, 30.979919%)" d="M 50.964844 33.933594 C 50.808594 33.933594 50.652344 33.847656 50.570312 33.703125 C 50.453125 33.484375 50.527344 33.210938 50.746094 33.089844 L 53.316406 31.660156 C 53.53125 31.539062 53.808594 31.617188 53.925781 31.835938 C 54.046875 32.050781 53.96875 32.324219 53.753906 32.445312 L 51.183594 33.875 C 51.113281 33.914062 51.039062 33.933594 50.964844 33.933594 " fill-opacity="1" fill-rule="nonzero"/><g clip-path="url(#id3)"><path fill="rgb(47.44873%, 76.858521%, 30.979919%)" d="M 52.855469 37.332031 C 52.695312 37.332031 52.542969 37.246094 52.460938 37.101562 C 52.339844 36.882812 52.417969 36.609375 52.636719 36.488281 L 55.207031 35.058594 C 55.425781 34.941406 55.699219 35.015625 55.816406 35.234375 C 55.9375 35.453125 55.859375 35.722656 55.644531 35.84375 L 53.070312 37.273438 C 53.003906 37.3125 52.929688 37.332031 52.855469 37.332031 " fill-opacity="1" fill-rule="nonzero"/></g><path fill="rgb(47.44873%, 76.858521%, 30.979919%)" d="M 50.050781 36.664062 C 49.894531 36.664062 49.742188 36.582031 49.660156 36.433594 L 47.71875 32.945312 C 47.601562 32.730469 47.675781 32.457031 47.894531 32.335938 C 48.113281 32.214844 48.382812 32.296875 48.503906 32.511719 L 50.445312 35.996094 C 50.566406 36.214844 50.484375 36.488281 50.269531 36.605469 C 50.199219 36.644531 50.125 36.664062 50.050781 36.664062 " fill-opacity="1" fill-rule="nonzero"/><g fill="rgb(100%, 79.998779%, 0%)" fill-opacity="1"><g transform="translate(29.117076, 59.901249)"><g><path d="M 0.226562 0 L 0.894531 0 L 1.632812 -1.808594 L 5.371094 -1.808594 L 6.121094 0 L 6.777344 0 L 3.800781 -7.1875 L 3.203125 -7.1875 Z M 1.878906 -2.382812 L 3.5 -6.335938 L 5.132812 -2.382812 Z M 1.878906 -2.382812 "/></g></g></g><g fill="rgb(100%, 79.998779%, 0%)" fill-opacity="1"><g transform="translate(36.12855, 59.901249)"><g><path d="M 3.109375 0 L 3.707031 0 L 6.582031 -7.1875 L 5.925781 -7.1875 L 4.488281 -3.59375 L 3.410156 -0.863281 L 0.894531 -7.1875 L 0.226562 -7.1875 Z M 3.109375 0 "/></g></g></g><g fill="rgb(100%, 79.998779%, 0%)" fill-opacity="1"><g transform="translate(42.934717, 59.901249)"><g><path d="M 1.160156 0 L 1.785156 0 L 1.785156 -7.1875 L 1.160156 -7.1875 Z M 1.160156 0 "/></g></g></g><g fill="rgb(100%, 79.998779%, 0%)" fill-opacity="1"><g transform="translate(19.859264, 69.651248)"><g><path d="M 3.46875 0.132812 C 5.03125 0.132812 6.015625 -0.625 6.015625 -1.828125 C 6.015625 -2.855469 5.320312 -3.492188 3.5 -3.910156 C 1.992188 -4.25 1.457031 -4.691406 1.457031 -5.410156 C 1.457031 -6.203125 2.136719 -6.726562 3.296875 -6.726562 C 4.496094 -6.726562 5.226562 -6.148438 5.277344 -5.132812 L 5.894531 -5.132812 C 5.84375 -6.519531 4.878906 -7.320312 3.296875 -7.320312 C 1.765625 -7.320312 0.832031 -6.5625 0.832031 -5.410156 C 0.832031 -4.332031 1.582031 -3.738281 3.347656 -3.328125 C 4.796875 -3.007812 5.378906 -2.566406 5.378906 -1.816406 C 5.378906 -0.984375 4.652344 -0.460938 3.46875 -0.460938 C 2.226562 -0.460938 1.394531 -1.078125 1.335938 -2.136719 L 0.71875 -2.136719 C 0.769531 -0.75 1.828125 0.132812 3.46875 0.132812 Z M 3.46875 0.132812 "/></g></g></g><g fill="rgb(100%, 79.998779%, 0%)" fill-opacity="1"><g transform="translate(26.603839, 69.651248)"><g><path d="M 4.363281 0.132812 C 6.5625 0.132812 8.070312 -1.394531 8.070312 -3.59375 C 8.070312 -5.789062 6.5625 -7.320312 4.363281 -7.320312 C 2.175781 -7.320312 0.65625 -5.789062 0.65625 -3.59375 C 0.65625 -1.394531 2.175781 0.132812 4.363281 0.132812 Z M 1.292969 -3.59375 C 1.292969 -5.441406 2.546875 -6.695312 4.363281 -6.695312 C 6.191406 -6.695312 7.445312 -5.441406 7.445312 -3.59375 C 7.445312 -1.753906 6.191406 -0.492188 4.363281 -0.492188 C 2.546875 -0.492188 1.292969 -1.753906 1.292969 -3.59375 Z M 1.292969 -3.59375 "/></g></g></g><g fill="rgb(100%, 79.998779%, 0%)" fill-opacity="1"><g transform="translate(35.329695, 69.651248)"><g><path d="M 1.160156 0 L 5.429688 0 L 5.429688 -0.59375 L 1.785156 -0.59375 L 1.785156 -7.1875 L 1.160156 -7.1875 Z M 1.160156 0 "/></g></g></g><g fill="rgb(100%, 79.998779%, 0%)" fill-opacity="1"><g transform="translate(41.109293, 69.651248)"><g><path d="M 0.226562 0 L 0.894531 0 L 1.632812 -1.808594 L 5.371094 -1.808594 L 6.121094 0 L 6.777344 0 L 3.800781 -7.1875 L 3.203125 -7.1875 Z M 1.878906 -2.382812 L 3.5 -6.335938 L 5.132812 -2.382812 Z M 1.878906 -2.382812 "/></g></g></g><g fill="rgb(100%, 79.998779%, 0%)" fill-opacity="1"><g transform="translate(48.120767, 69.651248)"><g><path d="M 1.160156 0 L 1.785156 0 L 1.785156 -2.699219 L 3.644531 -2.699219 L 5.574219 0 L 6.324219 0 L 4.375 -2.75 C 5.503906 -2.945312 6.210938 -3.757812 6.210938 -4.949219 C 6.210938 -6.316406 5.265625 -7.1875 3.820312 -7.1875 L 1.160156 -7.1875 Z M 1.785156 -3.296875 L 1.785156 -6.589844 L 3.757812 -6.589844 C 4.898438 -6.589844 5.574219 -5.964844 5.574219 -4.949219 C 5.574219 -3.921875 4.898438 -3.296875 3.757812 -3.296875 Z M 1.785156 -3.296875 "/></g></g></g></svg>